<svg width="231" height="31" viewBox="0 0 231 31" fill="none" xmlns="http://www.w3.org/2000/svg">
<path d="M14.1016 6.42578L6.36719 30H0.136719L10.7031 1.5625H14.668L14.1016 6.42578ZM20.5273 30L12.7734 6.42578L12.1484 1.5625H16.1523L26.7773 30H20.5273ZM20.1758 19.4141V24.0039H5.15625V19.4141H20.1758ZM35.8 0V30H30.1555V0H35.8ZM47.1859 8.86719V30H41.5414V8.86719H47.1859ZM41.1898 3.35938C41.1898 2.53906 41.4763 1.86198 42.0492 1.32812C42.6221 0.794271 43.3904 0.527344 44.3539 0.527344C45.3044 0.527344 46.0661 0.794271 46.6391 1.32812C47.225 1.86198 47.518 2.53906 47.518 3.35938C47.518 4.17969 47.225 4.85677 46.6391 5.39062C46.0661 5.92448 45.3044 6.19141 44.3539 6.19141C43.3904 6.19141 42.6221 5.92448 42.0492 5.39062C41.4763 4.85677 41.1898 4.17969 41.1898 3.35938ZM61.3648 25.9961C62.0549 25.9961 62.6669 25.8659 63.2008 25.6055C63.7346 25.332 64.1513 24.9544 64.4508 24.4727C64.7633 23.9779 64.926 23.3984 64.9391 22.7344H70.232C70.219 24.2188 69.8219 25.5404 69.0406 26.6992C68.2594 27.8451 67.2112 28.75 65.8961 29.4141C64.581 30.0651 63.1096 30.3906 61.482 30.3906C59.8414 30.3906 58.4091 30.1172 57.1852 29.5703C55.9742 29.0234 54.9651 28.2682 54.1578 27.3047C53.3505 26.3281 52.7451 25.1953 52.3414 23.9062C51.9378 22.6042 51.7359 21.2109 51.7359 19.7266V19.1602C51.7359 17.6628 51.9378 16.2695 52.3414 14.9805C52.7451 13.6784 53.3505 12.5456 54.1578 11.582C54.9651 10.6055 55.9742 9.84375 57.1852 9.29688C58.3961 8.75 59.8154 8.47656 61.443 8.47656C63.1747 8.47656 64.6917 8.80859 65.9938 9.47266C67.3089 10.1367 68.3375 11.0872 69.0797 12.3242C69.8349 13.5482 70.219 15 70.232 16.6797H64.9391C64.926 15.9766 64.7763 15.3385 64.4898 14.7656C64.2164 14.1927 63.8128 13.737 63.2789 13.3984C62.7581 13.0469 62.1135 12.8711 61.3453 12.8711C60.525 12.8711 59.8544 13.0469 59.3336 13.3984C58.8128 13.737 58.4091 14.2057 58.1227 14.8047C57.8362 15.3906 57.6344 16.0612 57.5172 16.8164C57.413 17.5586 57.3609 18.3398 57.3609 19.1602V19.7266C57.3609 20.5469 57.413 21.3346 57.5172 22.0898C57.6214 22.8451 57.8167 23.5156 58.1031 24.1016C58.4026 24.6875 58.8128 25.1497 59.3336 25.4883C59.8544 25.8268 60.5315 25.9961 61.3648 25.9961ZM84.0203 30.3906C82.3797 30.3906 80.9083 30.1302 79.6062 29.6094C78.3042 29.0755 77.1974 28.3398 76.2859 27.4023C75.3875 26.4648 74.6974 25.3776 74.2156 24.1406C73.7339 22.8906 73.493 21.5625 73.493 20.1562V19.375C73.493 17.7734 73.7208 16.3086 74.1766 14.9805C74.6323 13.6523 75.2833 12.5 76.1297 11.5234C76.9891 10.5469 78.0307 9.79818 79.2547 9.27734C80.4786 8.74349 81.8589 8.47656 83.3953 8.47656C84.8927 8.47656 86.2208 8.72396 87.3797 9.21875C88.5385 9.71354 89.5086 10.4167 90.2898 11.3281C91.0841 12.2396 91.6831 13.3333 92.0867 14.6094C92.4904 15.8724 92.6922 17.2786 92.6922 18.8281V21.1719H75.8953V17.4219H87.1648V16.9922C87.1648 16.2109 87.0216 15.5143 86.7352 14.9023C86.4617 14.2773 86.045 13.7826 85.4852 13.418C84.9253 13.0534 84.2091 12.8711 83.3367 12.8711C82.5945 12.8711 81.9565 13.0339 81.4227 13.3594C80.8888 13.6849 80.4526 14.1406 80.1141 14.7266C79.7885 15.3125 79.5411 16.0026 79.3719 16.7969C79.2156 17.5781 79.1375 18.4375 79.1375 19.375V20.1562C79.1375 21.0026 79.2547 21.7839 79.4891 22.5C79.7365 23.2161 80.0815 23.8346 80.5242 24.3555C80.9799 24.8763 81.5268 25.2799 82.1648 25.5664C82.8159 25.8529 83.5516 25.9961 84.3719 25.9961C85.3875 25.9961 86.3315 25.8008 87.2039 25.4102C88.0893 25.0065 88.851 24.401 89.4891 23.5938L92.2234 26.5625C91.7807 27.2005 91.1753 27.8125 90.407 28.3984C89.6518 28.9844 88.7404 29.4661 87.6727 29.8438C86.6049 30.2083 85.3875 30.3906 84.0203 30.3906ZM124.292 20.5664H130.132C130.015 22.4805 129.488 24.1797 128.55 25.6641C127.626 27.1484 126.33 28.3073 124.663 29.1406C123.01 29.974 121.017 30.3906 118.687 30.3906C116.864 30.3906 115.23 30.0781 113.784 29.4531C112.339 28.8151 111.102 27.9036 110.073 26.7188C109.058 25.5339 108.283 24.1016 107.749 22.4219C107.215 20.7422 106.948 18.8607 106.948 16.7773V14.8047C106.948 12.7214 107.222 10.8398 107.769 9.16016C108.329 7.46745 109.123 6.02865 110.152 4.84375C111.193 3.65885 112.437 2.7474 113.882 2.10938C115.327 1.47135 116.942 1.15234 118.726 1.15234C121.096 1.15234 123.094 1.58203 124.722 2.44141C126.363 3.30078 127.632 4.48568 128.53 5.99609C129.442 7.50651 129.989 9.22526 130.171 11.1523H124.312C124.247 10.0065 124.019 9.03646 123.628 8.24219C123.238 7.4349 122.645 6.82943 121.851 6.42578C121.07 6.00911 120.028 5.80078 118.726 5.80078C117.749 5.80078 116.896 5.98307 116.167 6.34766C115.438 6.71224 114.826 7.26562 114.331 8.00781C113.836 8.75 113.465 9.6875 113.218 10.8203C112.984 11.9401 112.866 13.2552 112.866 14.7656V16.7773C112.866 18.2487 112.977 19.5443 113.198 20.6641C113.42 21.7708 113.758 22.7083 114.214 23.4766C114.683 24.2318 115.282 24.8047 116.011 25.1953C116.753 25.5729 117.645 25.7617 118.687 25.7617C119.911 25.7617 120.92 25.5664 121.714 25.1758C122.508 24.7852 123.114 24.2057 123.53 23.4375C123.96 22.6693 124.214 21.7122 124.292 20.5664ZM144.155 30.3906C142.514 30.3906 141.043 30.1302 139.741 29.6094C138.439 29.0755 137.332 28.3398 136.42 27.4023C135.522 26.4648 134.832 25.3776 134.35 24.1406C133.868 22.8906 133.627 21.5625 133.627 20.1562V19.375C133.627 17.7734 133.855 16.3086 134.311 14.9805C134.767 13.6523 135.418 12.5 136.264 11.5234C137.123 10.5469 138.165 9.79818 139.389 9.27734C140.613 8.74349 141.993 8.47656 143.53 8.47656C145.027 8.47656 146.355 8.72396 147.514 9.21875C148.673 9.71354 149.643 10.4167 150.424 11.3281C151.218 12.2396 151.817 13.3333 152.221 14.6094C152.625 15.8724 152.827 17.2786 152.827 18.8281V21.1719H136.03V17.4219H147.299V16.9922C147.299 16.2109 147.156 15.5143 146.87 14.9023C146.596 14.2773 146.179 13.7826 145.62 13.418C145.06 13.0534 144.343 12.8711 143.471 12.8711C142.729 12.8711 142.091 13.0339 141.557 13.3594C141.023 13.6849 140.587 14.1406 140.248 14.7266C139.923 15.3125 139.676 16.0026 139.506 16.7969C139.35 17.5781 139.272 18.4375 139.272 19.375V20.1562C139.272 21.0026 139.389 21.7839 139.623 22.5C139.871 23.2161 140.216 23.8346 140.659 24.3555C141.114 24.8763 141.661 25.2799 142.299 25.5664C142.95 25.8529 143.686 25.9961 144.506 25.9961C145.522 25.9961 146.466 25.8008 147.338 25.4102C148.224 25.0065 148.985 24.401 149.623 23.5938L152.358 26.5625C151.915 27.2005 151.31 27.8125 150.541 28.3984C149.786 28.9844 148.875 29.4661 147.807 29.8438C146.739 30.2083 145.522 30.3906 144.155 30.3906ZM165.56 25.9961C166.25 25.9961 166.862 25.8659 167.396 25.6055C167.93 25.332 168.347 24.9544 168.646 24.4727C168.959 23.9779 169.121 23.3984 169.134 22.7344H174.427C174.414 24.2188 174.017 25.5404 173.236 26.6992C172.455 27.8451 171.407 28.75 170.091 29.4141C168.776 30.0651 167.305 30.3906 165.677 30.3906C164.037 30.3906 162.604 30.1172 161.38 29.5703C160.17 29.0234 159.16 28.2682 158.353 27.3047C157.546 26.3281 156.94 25.1953 156.537 23.9062C156.133 22.6042 155.931 21.2109 155.931 19.7266V19.1602C155.931 17.6628 156.133 16.2695 156.537 14.9805C156.94 13.6784 157.546 12.5456 158.353 11.582C159.16 10.6055 160.17 9.84375 161.38 9.29688C162.591 8.75 164.011 8.47656 165.638 8.47656C167.37 8.47656 168.887 8.80859 170.189 9.47266C171.504 10.1367 172.533 11.0872 173.275 12.3242C174.03 13.5482 174.414 15 174.427 16.6797H169.134C169.121 15.9766 168.972 15.3385 168.685 14.7656C168.412 14.1927 168.008 13.737 167.474 13.3984C166.953 13.0469 166.309 12.8711 165.541 12.8711C164.72 12.8711 164.05 13.0469 163.529 13.3984C163.008 13.737 162.604 14.2057 162.318 14.8047C162.032 15.3906 161.83 16.0612 161.712 16.8164C161.608 17.5586 161.556 18.3398 161.556 19.1602V19.7266C161.556 20.5469 161.608 21.3346 161.712 22.0898C161.817 22.8451 162.012 23.5156 162.298 24.1016C162.598 24.6875 163.008 25.1497 163.529 25.4883C164.05 25.8268 164.727 25.9961 165.56 25.9961ZM184.563 8.86719V30H178.919V8.86719H184.563ZM179.095 6.30859L182.923 0.292969H189.036L183.665 6.30859H179.095ZM196.164 0V30H190.52V0H196.164ZM207.55 8.86719V30H201.905V8.86719H207.55ZM201.554 3.35938C201.554 2.53906 201.84 1.86198 202.413 1.32812C202.986 0.794271 203.754 0.527344 204.718 0.527344C205.668 0.527344 206.43 0.794271 207.003 1.32812C207.589 1.86198 207.882 2.53906 207.882 3.35938C207.882 4.17969 207.589 4.85677 207.003 5.39062C206.43 5.92448 205.668 6.19141 204.718 6.19141C203.754 6.19141 202.986 5.92448 202.413 5.39062C201.84 4.85677 201.554 4.17969 201.554 3.35938ZM224.405 25.2344V15.8203C224.405 15.1432 224.294 14.5638 224.073 14.082C223.851 13.5872 223.506 13.2031 223.038 12.9297C222.582 12.6562 221.989 12.5195 221.26 12.5195C220.635 12.5195 220.095 12.6302 219.639 12.8516C219.183 13.0599 218.832 13.3659 218.584 13.7695C218.337 14.1602 218.213 14.6224 218.213 15.1562H212.588C212.588 14.2578 212.797 13.4049 213.213 12.5977C213.63 11.7904 214.235 11.0807 215.03 10.4688C215.824 9.84375 216.768 9.35547 217.862 9.00391C218.968 8.65234 220.205 8.47656 221.573 8.47656C223.213 8.47656 224.672 8.75 225.948 9.29688C227.224 9.84375 228.226 10.6641 228.955 11.7578C229.698 12.8516 230.069 14.2188 230.069 15.8594V24.9023C230.069 26.0612 230.14 27.0117 230.284 27.7539C230.427 28.4831 230.635 29.1211 230.909 29.668V30H225.225C224.952 29.4271 224.743 28.7109 224.6 27.8516C224.47 26.9792 224.405 26.1068 224.405 25.2344ZM225.147 17.1289L225.186 20.3125H222.041C221.299 20.3125 220.655 20.3971 220.108 20.5664C219.561 20.7357 219.112 20.9766 218.76 21.2891C218.409 21.5885 218.148 21.9401 217.979 22.3438C217.823 22.7474 217.745 23.1901 217.745 23.6719C217.745 24.1536 217.855 24.5898 218.077 24.9805C218.298 25.3581 218.617 25.6576 219.034 25.8789C219.45 26.0872 219.939 26.1914 220.498 26.1914C221.345 26.1914 222.08 26.0221 222.705 25.6836C223.33 25.3451 223.812 24.9284 224.151 24.4336C224.502 23.9388 224.685 23.4701 224.698 23.0273L226.182 25.4102C225.974 25.944 225.687 26.4974 225.323 27.0703C224.971 27.6432 224.522 28.1836 223.975 28.6914C223.428 29.1862 222.771 29.5964 222.002 29.9219C221.234 30.2344 220.323 30.3906 219.268 30.3906C217.927 30.3906 216.709 30.1237 215.616 29.5898C214.535 29.043 213.676 28.2943 213.038 27.3438C212.413 26.3802 212.1 25.2865 212.1 24.0625C212.1 22.9557 212.308 21.9727 212.725 21.1133C213.142 20.2539 213.754 19.5312 214.561 18.9453C215.381 18.3464 216.403 17.8971 217.627 17.5977C218.851 17.2852 220.271 17.1289 221.885 17.1289H225.147Z" fill="black"/>
</svg>
